<?xml version="1.0" encoding="UTF-8" standalone="no"?>
<svg
   xmlns:dc="http://purl.org/dc/elements/1.1/"
   xmlns:cc="http://creativecommons.org/ns#"
   xmlns:rdf="http://www.w3.org/1999/02/22-rdf-syntax-ns#"
   xmlns:svg="http://www.w3.org/2000/svg"
   xmlns="http://www.w3.org/2000/svg"
   xmlns:sodipodi="http://sodipodi.sourceforge.net/DTD/sodipodi-0.dtd"
   xmlns:inkscape="http://www.inkscape.org/namespaces/inkscape"
   viewBox="-663.5 -323 645.88446 277.70889"
   width="645.88446"
   height="277.70889"
   version="1.1"
   id="svg230"
   sodipodi:docname="cnn.svg"
   inkscape:version="0.92.3 (2405546, 2018-03-11)">
  <metadata
     id="metadata236">
    <rdf:RDF>
      <cc:Work
         rdf:about="">
        <dc:format>image/svg+xml</dc:format>
        <dc:type
           rdf:resource="http://purl.org/dc/dcmitype/StillImage" />
        <dc:title></dc:title>
      </cc:Work>
    </rdf:RDF>
  </metadata>
  <defs
     id="defs234" />
  <sodipodi:namedview
     pagecolor="#ffffff"
     bordercolor="#666666"
     borderopacity="1"
     objecttolerance="10"
     gridtolerance="10"
     guidetolerance="10"
     inkscape:pageopacity="0"
     inkscape:pageshadow="2"
     inkscape:window-width="1918"
     inkscape:window-height="1162"
     id="namedview232"
     showgrid="false"
     fit-margin-top="0"
     fit-margin-left="0"
     fit-margin-right="0"
     fit-margin-bottom="0"
     inkscape:zoom="0.98899034"
     inkscape:cx="453.2763"
     inkscape:cy="91.396834"
     inkscape:window-x="1920"
     inkscape:window-y="18"
     inkscape:window-maximized="0"
     inkscape:current-layer="svg230" />
  <path
     d="m -626.95159,-157.64455 -3.30783,-0.17576 m 0,-123.83326 v 123.83326 m 0,0 -32.73347,24.16883 m 36.0413,-147.82633 v 123.83326 m 0,0 -32.73347,24.16883"
     style="fill:none;stroke:#000000;stroke-width:1;stroke-linecap:round"
     id="path2"
     inkscape:connector-curvature="0" />
  <path
     d="m -626.95159,-157.64455 -3.30783,-0.17576 v -123.83326 z m 0,-123.83326 v 123.83326 l -3.30783,-124.00902 z"
     style="fill:#eeeeee;fill-opacity:0.4"
     id="path4"
     inkscape:connector-curvature="0" />
  <path
     d="m -626.95159,-281.47781 -3.30783,-0.17576 m 0,0 -32.73347,24.16884 m 36.0413,-23.99308 -32.73347,24.16883 m 205.49382,99.6437 -114.64077,-6.09131 m 0,-100.56477 v 100.56477 m 0,0 -26.58279,19.62747"
     style="fill:none;stroke:#000000;stroke-width:1;stroke-linecap:round"
     id="path6"
     inkscape:connector-curvature="0" />
  <path
     d="m -662.99289,-133.65148 32.73347,-24.16883 3.30783,0.17576 z m 208.80165,-24.0138 -114.64077,-6.09131 v -100.56477 z m -205.49382,24.18956 32.73347,-24.16883 v -123.83326 z"
     style="fill:#eeeeee;fill-opacity:0.4"
     id="path8"
     inkscape:connector-curvature="0" />
  <path
     d="m -454.19124,-258.23005 -114.64077,-6.09131 m 0,0 -26.58279,19.62747"
     style="fill:none;stroke:#000000;stroke-width:1;stroke-linecap:round"
     id="path10"
     inkscape:connector-curvature="0" />
  <path
     d="m -630.25942,-281.65357 v 123.83326 l -32.73347,-99.66442 z"
     style="fill:#eeeeee;fill-opacity:0.4"
     id="path12"
     inkscape:connector-curvature="0" />
  <path
     d="m -454.19124,-258.23005 v 100.56477 m 0,0 -26.58279,19.62747 m 21.35082,-76.68577 -114.64077,-6.09131 m 0,-10.0708 v 10.0708 m 0,0 -2.66207,1.96555 m 117.30284,-5.94504 -114.64077,-6.09131 m 0,0 -2.66207,1.96554"
     style="fill:none;stroke:#000000;stroke-width:1;stroke-linecap:round"
     id="path14"
     inkscape:connector-curvature="0" />
  <path
     d="m -454.19124,-258.23005 v 100.56477 l -114.64077,-106.65608 z m -205.49382,0.92107 32.73347,-24.16883 -3.30783,-0.17576 z"
     style="fill:#eeeeee;fill-opacity:0.4"
     id="path16"
     inkscape:connector-curvature="0" />
  <path
     d="m -574.06398,-230.88569 v 10.0708 l -2.66207,-8.10526 z m 0,10.0708 -2.66207,1.96555 v -10.07081 z"
     style="fill:#99ddff;fill-opacity:0.4"
     id="path18"
     inkscape:connector-curvature="0" />
  <path
     d="m -576.72605,-228.92015 v 10.07081 m 0,0 114.64078,6.09131"
     style="fill:none;stroke:#000000;stroke-width:1;stroke-linecap:round"
     id="path20"
     inkscape:connector-curvature="0" />
  <path
     d="m -459.42321,-214.72358 -114.64077,-6.09131 v -10.0708 z"
     style="fill:#99ddff;fill-opacity:0.4"
     id="path22"
     inkscape:connector-curvature="0" />
  <path
     d="m -595.4148,-144.12912 26.58279,-19.62747 114.64077,6.09131 z"
     style="fill:#eeeeee;fill-opacity:0.4"
     id="path24"
     inkscape:connector-curvature="0" />
  <path
     d="m -646.56949,-152.84038 -3.30784,-0.17576 m 0,-10.0708 v 10.0708 m 0,0 -2.66206,1.96554 m 75.81334,-77.86955 114.64078,6.09131 m -186.13814,59.82978 v 10.0708 m 0,0 -2.66206,1.96554 m 2.66206,-1.96554 62.37881,-10.21801 m -60.72489,0.23509 v 10.0708 m 0,0 -2.66207,1.96554"
     style="fill:none;stroke:#000000;stroke-width:1;stroke-linecap:round"
     id="path26"
     inkscape:connector-curvature="0" />
  <path
     d="m -646.56949,-152.84038 -3.30784,-0.17576 v -10.0708 z m 69.84344,-66.00896 2.66207,-1.96555 114.64077,6.09131 z m -69.84344,55.93816 v 10.0708 l -3.30784,-10.24656 z"
     style="fill:#99ddff;fill-opacity:0.4"
     id="path28"
     inkscape:connector-curvature="0" />
  <path
     d="m -646.56949,-162.91118 -3.30784,-0.17576 m 0,0 -2.66206,1.96554 m 4.31598,-1.87766 -2.66206,1.96554 m 2.66206,-1.96554 62.37881,-0.14721"
     style="fill:none;stroke:#000000;stroke-width:1;stroke-linecap:round"
     id="path30"
     inkscape:connector-curvature="0" />
  <path
     d="m -568.83201,-264.32136 v 100.56477 l -26.58279,-80.9373 z"
     style="fill:#eeeeee;fill-opacity:0.4"
     id="path32"
     inkscape:connector-curvature="0" />
  <path
     d="m -646.56949,-162.91118 -2.66207,1.96554"
     style="fill:none;stroke:#000000;stroke-width:1;stroke-linecap:round"
     id="path34"
     inkscape:connector-curvature="0" />
  <path
     d="m -652.53939,-151.0506 2.66206,-1.96554 3.30784,0.17576 z"
     style="fill:#99ddff;fill-opacity:0.4"
     id="path36"
     inkscape:connector-curvature="0" />
  <path
     d="m -648.22341,-162.99906 v 10.0708 l -2.66207,1.96554 z"
     style="fill:#ffbbbb;fill-opacity:0.4"
     id="path38"
     inkscape:connector-curvature="0" />
  <path
     d="m -649.87733,-163.08694 v 10.0708 l -2.66206,-8.10526 z m 0.64577,12.2121 2.66207,-1.96554 v -10.0708 z m 0,-10.0708 2.66207,-1.96554 -3.30784,-0.17576 z"
     style="fill:#99ddff;fill-opacity:0.4"
     id="path40"
     inkscape:connector-curvature="0" />
  <path
     d="m -659.68506,-133.47572 -3.30783,-0.17576 36.0413,-23.99307 z"
     style="fill:#eeeeee;fill-opacity:0.4"
     id="path42"
     inkscape:connector-curvature="0" />
  <path
     d="m -576.72605,-228.92015 114.64078,6.09131 -111.97871,-8.05685 z m -72.50551,78.04531 -3.30783,-0.17576 5.9699,-1.78978 z m -0.64577,-2.1413 -2.66206,1.96554 v -10.0708 z"
     style="fill:#99ddff;fill-opacity:0.4"
     id="path44"
     inkscape:connector-curvature="0" />
  <path
     d="m -454.19124,-258.23005 -26.58279,19.62747"
     style="fill:none;stroke:#000000;stroke-width:1;stroke-linecap:round"
     id="path46"
     inkscape:connector-curvature="0" />
  <path
     d="m -648.22341,-152.92826 v -10.0708 l 62.37881,-0.14721 z m 0,-10.0708 -2.66207,12.03634 v -10.0708 z"
     style="fill:#ffbbbb;fill-opacity:0.4"
     id="path48"
     inkscape:connector-curvature="0" />
  <path
     d="m -649.23156,-160.94564 v 10.0708 l 2.66207,-12.03634 z m -3.30783,-0.17576 3.30783,0.17576 -0.64577,-2.1413 z m 75.81334,-67.79875 v 10.07081 l 114.64078,-3.9795 z"
     style="fill:#99ddff;fill-opacity:0.4"
     id="path50"
     inkscape:connector-curvature="0" />
  <path
     d="m -652.53939,-161.1214 v 10.0708 m 0,0 3.30783,0.17576"
     style="fill:none;stroke:#000000;stroke-width:1;stroke-linecap:round"
     id="path52"
     inkscape:connector-curvature="0" />
  <path
     d="m -459.42321,-224.79438 v 10.0708 l -114.64077,-16.16211 z"
     style="fill:#99ddff;fill-opacity:0.4"
     id="path54"
     inkscape:connector-curvature="0" />
  <path
     d="m -650.88547,-150.96272 v -10.0708 m 0,10.0708 65.04087,-12.18355 m -63.38696,2.20063 v 10.0708"
     style="fill:none;stroke:#000000;stroke-width:1;stroke-linecap:round"
     id="path56"
     inkscape:connector-curvature="0" />
  <path
     d="m -650.88548,-150.96272 2.66207,-1.96554 62.37881,-10.21801 z"
     style="fill:#ffbbbb;fill-opacity:0.4"
     id="path58"
     inkscape:connector-curvature="0" />
  <path
     d="m -652.53939,-151.0506 3.30783,0.17576 v -10.0708 z m 0,-10.0708 v 10.0708 l 3.30783,-9.89504 z"
     style="fill:#99ddff;fill-opacity:0.4"
     id="path60"
     inkscape:connector-curvature="0" />
  <path
     d="m -652.53939,-161.1214 3.30783,0.17576"
     style="fill:none;stroke:#000000;stroke-width:1;stroke-linecap:round"
     id="path62"
     inkscape:connector-curvature="0" />
  <path
     d="m -648.22341,-162.99906 -2.66207,1.96554 65.04088,-2.11275 z"
     style="fill:#ffbbbb;fill-opacity:0.4"
     id="path64"
     inkscape:connector-curvature="0" />
  <path
     d="m -650.88547,-161.03352 65.04087,-2.11275"
     style="fill:none;stroke:#000000;stroke-width:1;stroke-linecap:round"
     id="path66"
     inkscape:connector-curvature="0" />
  <path
     d="m -462.08527,-222.82884 2.66206,-1.96554 -114.64077,-6.09131 z"
     style="fill:#99ddff;fill-opacity:0.4"
     id="path68"
     inkscape:connector-curvature="0" />
  <path
     d="m -630.25942,-157.82031 -32.73347,24.16883 v -123.83325 z"
     style="fill:#eeeeee;fill-opacity:0.4"
     id="path70"
     inkscape:connector-curvature="0" />
  <path
     d="m -650.88548,-161.03352 v 10.0708 l 65.04088,-12.18355 z"
     style="fill:#ffbbbb;fill-opacity:0.4"
     id="path72"
     inkscape:connector-curvature="0" />
  <path
     d="m -462.08527,-212.75803 -114.64078,-6.09131 117.30284,4.12576 z"
     style="fill:#99ddff;fill-opacity:0.4"
     id="path74"
     inkscape:connector-curvature="0" />
  <path
     d="m -279.77698,-157.59813 -114.64077,-6.09131 m 0,-77.29627 v 77.29627 m 0,0 -20.43211,15.08609 m -44.57335,-76.19103 v 10.0708 m 0,0 -2.66207,1.96555 m 2.66207,-1.96555 59.961,4.06295 m -59.961,-14.13375 v 10.0708 m 0,0 -2.66206,1.96555"
     style="fill:none;stroke:#000000;stroke-width:1;stroke-linecap:round"
     id="path76"
     inkscape:connector-curvature="0" />
  <path
     d="m -576.72605,-218.84934 114.64078,6.09131 v -10.07081 z"
     style="fill:#99ddff;fill-opacity:0.4"
     id="path78"
     inkscape:connector-curvature="0" />
  <path
     d="m -459.42321,-224.79438 -2.66207,1.96554 m 2.66207,-1.96554 59.961,14.13375 m -59.961,-14.13375 -2.66206,1.96554"
     style="fill:none;stroke:#000000;stroke-width:1;stroke-linecap:round"
     id="path80"
     inkscape:connector-curvature="0" />
  <path
     d="m -459.42321,-224.79438 v 10.0708 l -2.66207,1.96555 z"
     style="fill:#ffbbbb;fill-opacity:0.4"
     id="path82"
     inkscape:connector-curvature="0" />
  <path
     d="m -462.08527,-212.75803 2.66206,-1.96555 v -10.0708 z"
     style="fill:#99ddff;fill-opacity:0.4"
     id="path84"
     inkscape:connector-curvature="0" />
  <path
     d="m -659.68506,-257.30898 v 123.83326 l 32.73347,-148.00209 z m 178.91103,119.27117 26.58279,-19.62747 v -100.56477 z"
     style="fill:#eeeeee;fill-opacity:0.4"
     id="path86"
     inkscape:connector-curvature="0" />
  <path
     d="m -459.42321,-224.79438 -2.66207,12.03635 v -10.07081 z"
     style="fill:#ffbbbb;fill-opacity:0.4"
     id="path88"
     inkscape:connector-curvature="0" />
  <path
     d="m -462.08527,-222.82884 v 10.07081 l 2.66206,-12.03635 z"
     style="fill:#99ddff;fill-opacity:0.4"
     id="path90"
     inkscape:connector-curvature="0" />
  <path
     d="m -462.08528,-212.75803 v -10.07081 m 0,10.07081 62.62307,2.0974 m -62.62306,-12.16821 v 10.07081"
     style="fill:none;stroke:#000000;stroke-width:1;stroke-linecap:round"
     id="path92"
     inkscape:connector-curvature="0" />
  <path
     d="m -459.42321,-214.72358 v -10.0708 l 59.961,14.13375 z"
     style="fill:#ffbbbb;fill-opacity:0.4"
     id="path94"
     inkscape:connector-curvature="0" />
  <path
     d="m -568.83201,-163.75659 -26.58279,19.62747 v -100.56477 z m 88.05798,-74.84599 26.58279,-19.62747 -114.64077,-6.09131 z"
     style="fill:#eeeeee;fill-opacity:0.4"
     id="path96"
     inkscape:connector-curvature="0" />
  <path
     d="m -462.08528,-222.82884 62.62307,12.16821"
     style="fill:none;stroke:#000000;stroke-width:1;stroke-linecap:round"
     id="path98"
     inkscape:connector-curvature="0" />
  <path
     d="m -462.08528,-212.75803 2.66207,-1.96555 59.961,4.06295 z"
     style="fill:#ffbbbb;fill-opacity:0.4"
     id="path100"
     inkscape:connector-curvature="0" />
  <path
     d="m -662.99289,-257.48473 3.30783,0.17575 29.42564,-24.34459 z"
     style="fill:#eeeeee;fill-opacity:0.4"
     id="path102"
     inkscape:connector-curvature="0" />
  <path
     d="m -459.42321,-224.79438 -2.66207,1.96554 62.62307,12.16821 z"
     style="fill:#ffbbbb;fill-opacity:0.4"
     id="path104"
     inkscape:connector-curvature="0" />
  <path
     d="m -279.77698,-157.59813 -114.64077,-6.09131 v -77.29627 z"
     style="fill:#eeeeee;fill-opacity:0.4"
     id="path106"
     inkscape:connector-curvature="0" />
  <path
     d="m -279.77698,-234.8944 -114.64077,-6.09131 m 0,0 -20.43211,15.0861"
     style="fill:none;stroke:#000000;stroke-width:1;stroke-linecap:round"
     id="path108"
     inkscape:connector-curvature="0" />
  <path
     d="m -462.08528,-222.82884 v 10.07081 l 62.62307,2.0974 z"
     style="fill:#ffbbbb;fill-opacity:0.4"
     id="path110"
     inkscape:connector-curvature="0" />
  <path
     d="m -480.77403,-138.03781 -114.64077,-6.09131 141.22356,-13.53616 z"
     style="fill:#eeeeee;fill-opacity:0.4"
     id="path112"
     inkscape:connector-curvature="0" />
  <path
     d="m -662.99289,-257.48473 v 123.83325 m 0,0 3.30783,0.17576 m 0,-123.83326 v 123.83326 m 379.90808,-101.41868 v 77.29627 m 0,0 -20.43211,15.08609"
     style="fill:none;stroke:#000000;stroke-width:1;stroke-linecap:round"
     id="path114"
     inkscape:connector-curvature="0" />
  <path
     d="m -279.77698,-234.8944 v 77.29627 l -114.64077,-83.38758 z m -315.63782,-9.79949 114.64077,6.09131 -88.05798,-25.71878 z m 180.56494,96.09054 20.43211,-15.08609 114.64077,6.09131 z m 20.43211,-92.38236 v 77.29627 l -20.43211,-62.21017 z"
     style="fill:#eeeeee;fill-opacity:0.4"
     id="path116"
     inkscape:connector-curvature="0" />
  <path
     d="m -595.4148,-244.69389 v 100.56477 m 0,0 114.64077,6.09131"
     style="fill:none;stroke:#000000;stroke-width:1;stroke-linecap:round"
     id="path118"
     inkscape:connector-curvature="0" />
  <path
     d="m -662.99289,-133.65148 3.30783,0.17576 v -123.83326 z"
     style="fill:#eeeeee;fill-opacity:0.4"
     id="path120"
     inkscape:connector-curvature="0" />
  <path
     d="m -279.77698,-234.8944 -20.43211,15.0861"
     style="fill:none;stroke:#000000;stroke-width:1;stroke-linecap:round"
     id="path122"
     inkscape:connector-curvature="0" />
  <path
     d="m -662.99289,-257.48473 v 123.83325 l 3.30783,-123.6575 z m 182.21886,18.88215 v 100.56477 l 26.58279,-120.19224 z"
     style="fill:#eeeeee;fill-opacity:0.4"
     id="path124"
     inkscape:connector-curvature="0" />
  <path
     d="m -662.99289,-257.48473 3.30783,0.17575"
     style="fill:none;stroke:#000000;stroke-width:1;stroke-linecap:round"
     id="path126"
     inkscape:connector-curvature="0" />
  <path
     d="m -394.41775,-163.68944 -20.43211,15.08609 v -77.29626 z"
     style="fill:#eeeeee;fill-opacity:0.4"
     id="path128"
     inkscape:connector-curvature="0" />
  <path
     d="m -189.67663,-50.339602 -22.92816,-1.21826 m 0,-270.935018 v 270.935018 m 0,0 -6.15068,4.54137 m -376.65933,-197.677398 114.64077,6.09131"
     style="fill:none;stroke:#000000;stroke-width:1;stroke-linecap:round"
     id="path130"
     inkscape:connector-curvature="0" />
  <path
     d="m -300.20909,-142.51204 20.43211,-15.08609 V -234.8944 Z M -595.4148,-244.69389 v 100.56477 l 114.64077,-94.47346 z m 295.20571,24.88559 20.43211,-15.0861 -114.64077,-6.09131 z"
     style="fill:#eeeeee;fill-opacity:0.4"
     id="path132"
     inkscape:connector-curvature="0" />
  <path
     d="m -189.67663,-321.27462 v 270.935018 m 0,0 -6.15068,4.54137"
     style="fill:none;stroke:#000000;stroke-width:1;stroke-linecap:round"
     id="path134"
     inkscape:connector-curvature="0" />
  <path
     d="m -595.4148,-144.12912 114.64077,6.09131 v -100.56477 z m 376.65933,97.112628 6.15068,-4.54137 22.92816,1.21826 z"
     style="fill:#eeeeee;fill-opacity:0.4"
     id="path136"
     inkscape:connector-curvature="0" />
  <path
     d="m -480.77403,-238.60258 v 100.56477"
     style="fill:none;stroke:#000000;stroke-width:1;stroke-linecap:round"
     id="path138"
     inkscape:connector-curvature="0" />
  <path
     d="m -300.20909,-142.51204 -114.64077,-6.09131 135.07288,-8.99478 z"
     style="fill:#eeeeee;fill-opacity:0.4"
     id="path140"
     inkscape:connector-curvature="0" />
  <path
     d="m -414.84986,-225.89961 v 77.29626 m 0,0 114.64077,6.09131"
     style="fill:none;stroke:#000000;stroke-width:1;stroke-linecap:round"
     id="path142"
     inkscape:connector-curvature="0" />
  <path
     d="m -195.82731,-45.798232 -22.92816,-1.21826 29.07884,-3.32311 z m -219.02255,-180.101378 114.64077,6.09131 -94.20866,-21.17741 z m 225.17323,175.560008 -22.92816,-1.21826 V -322.49288 Z"
     style="fill:#eeeeee;fill-opacity:0.4"
     id="path144"
     inkscape:connector-curvature="0" />
  <path
     d="m -218.75547,-317.95151 v 270.935018 m 0,0 22.92816,1.21826 m -79.39382,-142.120098 35.28356,1.87475 m 44.11026,-130.68967 v 270.935018"
     style="fill:none;stroke:#000000;stroke-width:1;stroke-linecap:round"
     id="path146"
     inkscape:connector-curvature="0" />
  <path
     d="m -195.82731,-45.798232 6.15068,-4.54137 V -321.27462 Z m -16.77748,-5.75963 -6.15068,4.54137 V -317.95151 Z"
     style="fill:#eeeeee;fill-opacity:0.4"
     id="path148"
     inkscape:connector-curvature="0" />
  <path
     d="m -103.89965,-99.809712 -22.92815,-1.218258 m 0,-162.87947 v 162.87947 m 0,0 -6.15068,4.541368 m -281.87138,-129.413008 114.64077,6.09131"
     style="fill:none;stroke:#000000;stroke-width:1;stroke-linecap:round"
     id="path150"
     inkscape:connector-curvature="0" />
  <path
     d="m -300.20909,-219.8083 v 77.29626 l 20.43211,-92.38236 z"
     style="fill:#eeeeee;fill-opacity:0.4"
     id="path152"
     inkscape:connector-curvature="0" />
  <path
     d="m -238.63364,-193.79589 -2.60787,1.92553 22.25355,6.93992 z m -3.41374,11.90347 2.10981,4.24118 20.94961,-7.2792 z m 0.80587,-9.97794 -0.80587,9.97794 23.05942,-3.03802 z"
     style="fill:#000000"
     id="path154"
     inkscape:connector-curvature="0" />
  <path
     d="m -414.84986,-225.89961 v 77.29626 l 114.64077,-71.20495 z"
     style="fill:#eeeeee;fill-opacity:0.4"
     id="path156"
     inkscape:connector-curvature="0" />
  <path
     d="m -103.89965,-262.68918 v 162.879468 m 0,0 -6.15068,4.54137"
     style="fill:none;stroke:#000000;stroke-width:1;stroke-linecap:round"
     id="path158"
     inkscape:connector-curvature="0" />
  <path
     d="m -189.67663,-321.27462 v 270.935018 l -22.92816,-272.153278 z m 56.69815,224.788018 6.15068,-4.541368 22.92815,1.218258 z m -281.87138,-52.116748 114.64077,6.09131 v -77.29626 z m 202.24507,-173.88953 v 270.935018 l -6.15068,-266.393648 z m -6.15068,275.476388 22.92816,1.21826 V -316.73325 Z"
     style="fill:#eeeeee;fill-opacity:0.4"
     id="path160"
     inkscape:connector-curvature="0" />
  <path
     d="m -189.44414,-183.36067 35.28356,1.87476"
     style="fill:none;stroke:#000000;stroke-width:1;stroke-linecap:round"
     id="path162"
     inkscape:connector-curvature="0" />
  <path
     d="m -103.89965,-99.809712 -22.92815,-1.218258 v -162.87947 z"
     style="fill:#eeeeee;fill-opacity:0.4"
     id="path164"
     inkscape:connector-curvature="0" />
  <path
     d="m -300.20909,-219.8083 v 77.29626"
     style="fill:none;stroke:#000000;stroke-width:1;stroke-linecap:round"
     id="path166"
     inkscape:connector-curvature="0" />
  <path
     d="m -110.05033,-95.268342 -22.92815,-1.21826 29.07883,-3.32311 z"
     style="fill:#eeeeee;fill-opacity:0.4"
     id="path168"
     inkscape:connector-curvature="0" />
  <path
     d="m -189.67663,-321.27462 -22.92816,-1.21826 m 0,0 -6.15068,4.54137 m 85.77699,58.58544 v 162.879468 m 0,0 22.92815,1.21826"
     style="fill:none;stroke:#000000;stroke-width:1;stroke-linecap:round"
     id="path170"
     inkscape:connector-curvature="0" />
  <path
     d="m -195.82731,-316.73325 v 270.935018 l 6.15068,-275.476388 z"
     style="fill:#eeeeee;fill-opacity:0.4"
     id="path172"
     inkscape:connector-curvature="0" />
  <path
     d="m -152.85665,-189.23822 -2.60787,1.92553 22.25355,6.93991 z"
     style="fill:#000000"
     id="path174"
     inkscape:connector-curvature="0" />
  <path
     d="m -110.05033,-95.268342 6.15068,-4.54137 V -262.68918 Z"
     style="fill:#eeeeee;fill-opacity:0.4"
     id="path176"
     inkscape:connector-curvature="0" />
  <path
     d="m -156.2704,-177.33475 2.10982,4.24117 20.94961,-7.2792 z"
     style="fill:#000000"
     id="path178"
     inkscape:connector-curvature="0" />
  <path
     d="m -126.8278,-101.02797 -6.15068,4.541368 V -259.36607 Z m 22.92815,-161.66121 V -99.809712 L -126.8278,-263.90744 Z"
     style="fill:#eeeeee;fill-opacity:0.4"
     id="path180"
     inkscape:connector-curvature="0" />
  <path
     d="m -189.67663,-321.27462 -6.15068,4.54137"
     style="fill:none;stroke:#000000;stroke-width:1;stroke-linecap:round"
     id="path182"
     inkscape:connector-curvature="0" />
  <path
     d="m -218.75547,-317.95151 v 270.935018 l 22.92816,-269.716758 z"
     style="fill:#eeeeee;fill-opacity:0.4"
     id="path184"
     inkscape:connector-curvature="0" />
  <path
     d="m -155.46452,-187.31269 -0.80588,9.97794 23.05943,-3.03803 z"
     style="fill:#000000"
     id="path186"
     inkscape:connector-curvature="0" />
  <path
     d="M -110.05033,-258.14781 V -95.268342"
     style="fill:none;stroke:#000000;stroke-width:1;stroke-linecap:round"
     id="path188"
     inkscape:connector-curvature="0" />
  <path
     d="m -126.8278,-263.90744 v 162.87947 l -6.15068,-158.3381 z m -68.99951,-52.82581 6.15068,-4.54137 -22.92816,-1.21826 z"
     style="fill:#eeeeee;fill-opacity:0.4"
     id="path190"
     inkscape:connector-curvature="0" />
  <path
     d="m -103.89965,-262.68918 -22.92815,-1.21826 m 0,0 -6.15068,4.54137 m 29.31133,80.56307 35.283553,1.87475 m 50.26094,18.67632 -22.92815,-1.21826 m 0,-36.8797 v 36.8797 m 0,0 -6.15068,4.54136"
     style="fill:none;stroke:#000000;stroke-width:1;stroke-linecap:round"
     id="path192"
     inkscape:connector-curvature="0" />
  <path
     d="m -132.97848,-96.486602 22.92815,1.21826 V -258.14781 Z m -85.77699,-221.464908 22.92816,1.21826 -16.77748,-5.75963 z"
     style="fill:#eeeeee;fill-opacity:0.4"
     id="path194"
     inkscape:connector-curvature="0" />
  <path
     d="m -103.89965,-262.68918 -6.15068,4.54137"
     style="fill:none;stroke:#000000;stroke-width:1;stroke-linecap:round"
     id="path196"
     inkscape:connector-curvature="0" />
  <path
     d="m -18.122657,-158.25193 -22.92815,-1.21826 v -36.8797 z"
     style="fill:#eeeeee;fill-opacity:0.4"
     id="path198"
     inkscape:connector-curvature="0" />
  <path
     d="m -18.122657,-195.13163 v 36.8797 m 0,0 -6.15068,4.54136 m 6.15068,-41.42106 -22.92815,-1.21826 m 0,0 -6.15068,4.54137"
     style="fill:none;stroke:#000000;stroke-width:1;stroke-linecap:round"
     id="path200"
     inkscape:connector-curvature="0" />
  <path
     d="m -110.05033,-258.14781 v 162.879468 l 6.15068,-167.420838 z"
     style="fill:#eeeeee;fill-opacity:0.4"
     id="path202"
     inkscape:connector-curvature="0" />
  <path
     d="m -218.75547,-317.95151 22.92816,1.21826"
     style="fill:none;stroke:#000000;stroke-width:1;stroke-linecap:round"
     id="path204"
     inkscape:connector-curvature="0" />
  <path
     d="m -18.122657,-195.13163 v 36.8797 l -22.92815,-38.09796 z m -91.927673,-63.01618 6.15068,-4.54137 -22.92815,-1.21826 z m 62.848843,103.21898 6.15068,-4.54136 22.92815,1.21826 z m -85.776993,-104.43724 v 162.879468 l 22.92815,-161.661208 z"
     style="fill:#eeeeee;fill-opacity:0.4"
     id="path206"
     inkscape:connector-curvature="0" />
  <path
     d="m -67.079657,-184.68056 -2.60787,1.92553 22.25354,6.93991 z m -3.41375,11.90347 2.10981,4.24118 20.94961,-7.27921 z"
     style="fill:#000000"
     id="path208"
     inkscape:connector-curvature="0" />
  <path
     d="m -41.050807,-196.34989 v 36.8797 l -6.15068,-32.33833 z"
     style="fill:#eeeeee;fill-opacity:0.4"
     id="path210"
     inkscape:connector-curvature="0" />
  <path
     d="m -18.122657,-195.13163 -6.15068,4.54137"
     style="fill:none;stroke:#000000;stroke-width:1;stroke-linecap:round"
     id="path212"
     inkscape:connector-curvature="0" />
  <path
     d="m -132.97848,-259.36607 22.92815,1.21826 -16.77747,-5.75963 z"
     style="fill:#eeeeee;fill-opacity:0.4"
     id="path214"
     inkscape:connector-curvature="0" />
  <path
     d="m -69.687527,-182.75503 -0.80588,9.97794 23.05942,-3.03803 z"
     style="fill:#000000"
     id="path216"
     inkscape:connector-curvature="0" />
  <path
     d="m -24.273337,-153.71057 6.15068,-4.54136 v -36.8797 z m -16.77747,-5.75962 -6.15068,4.54136 v -36.87969 z m 16.77747,-31.12007 6.15068,-4.54137 -22.92815,-1.21826 z m 0,36.87969 -22.92815,-1.21826 29.07883,-3.3231 z"
     style="fill:#eeeeee;fill-opacity:0.4"
     id="path218"
     inkscape:connector-curvature="0" />
  <path
     d="m -132.97848,-259.36607 22.92815,1.21826 m 62.848843,66.33929 v 36.87969 m 0,0 22.92815,1.21826"
     style="fill:none;stroke:#000000;stroke-width:1;stroke-linecap:round"
     id="path220"
     inkscape:connector-curvature="0" />
  <path
     d="m -47.201487,-191.80852 22.92815,1.21826 -16.77747,-5.75963 z m 22.92815,1.21826 v 36.87969 l 6.15068,-41.42106 z"
     style="fill:#eeeeee;fill-opacity:0.4"
     id="path222"
     inkscape:connector-curvature="0" />
  <path
     d="m -24.273337,-190.59026 v 36.87969"
     style="fill:none;stroke:#000000;stroke-width:1;stroke-linecap:round"
     id="path224"
     inkscape:connector-curvature="0" />
  <path
     d="m -47.201487,-154.92883 22.92815,1.21826 v -36.87969 z m 0,-36.87969 v 36.87969 l 22.92815,-35.66143 z"
     style="fill:#eeeeee;fill-opacity:0.4"
     id="path226"
     inkscape:connector-curvature="0" />
  <path
     d="m -47.201487,-191.80852 22.92815,1.21826"
     style="fill:none;stroke:#000000;stroke-width:1;stroke-linecap:round"
     id="path228"
     inkscape:connector-curvature="0" />
</svg>
